<?xml version="1.0" encoding="UTF-8"?>
<!DOCTYPE svg PUBLIC "-//W3C//DTD SVG 1.1//EN" "http://www.w3.org/Graphics/SVG/1.1/DTD/svg11.dtd">
<!-- Creator: CorelDRAW 2020 (64-Bit Evaluation Version) -->
<svg xmlns="http://www.w3.org/2000/svg" xml:space="preserve" width="80mm" height="60mm" version="1.1" style="shape-rendering:geometricPrecision; text-rendering:geometricPrecision; image-rendering:optimizeQuality; fill-rule:evenodd; clip-rule:evenodd"
viewBox="0 0 800000 600000"
 xmlns:xlink="http://www.w3.org/1999/xlink"
 xmlns:xodm="http://www.corel.com/coreldraw/odm/2003">
 <defs>
  <style type="text/css">
   <![CDATA[
    .str0 {stroke:black;stroke-width:2000;stroke-miterlimit:22.9256}
    .fil2 {fill:none}
    .fil1 {fill:black}
    .fil0 {fill:#007A70}
    .fil3 {fill:black}
   ]]>
  </style>
 </defs>
 <g id="Layer_x0020_1">
  <metadata id="CorelCorpID_0Corel-Layer"/>
  <rect class="fil0" x="-985990" y="262235" width="823700" height="463331"/>
  <g>
   <path class="fil1" d="M-486977 334605l224999 0 7500 0 0 7500c0,18554 7597,35428 19834,47666 12237,12237 29113,19834 47667,19834l7500 0 0 7500 0 258330 0 7500 -7500 0 -300000 0 -7500 0 0 -7500 0 -333330 0 -7500 7500 0zm0 7500l224999 0c0,41250 33750,75000 75001,75000l0 258330 -300000 0 0 -333330z"/>
  </g>
  <g>
   <path class="fil1" d="M132343 438543c428,494 832,1009 1212,1545 2741,3854 4112,8496 4112,13921 0,3821 -647,7299 -1939,10431 -1372,3325 -3439,6136 -6197,8427 -2645,2196 -5773,3809 -9374,4835 -3313,943 -7040,1417 -11177,1417l-28342 0 -7500 0 0 -7500 0 -63287 0 -7500 7500 0 27791 0c4013,0 7650,457 10907,1370 3580,1005 6649,2552 9203,4639 2715,2219 4757,4971 6123,8250 1269,3046 1905,6451 1905,10209 0,2276 -315,4483 -941,6620l0 29c-636,2165 -1599,4181 -2884,6037 -130,188 -263,374 -399,557zm-12815 423c3485,1101 6130,2920 7933,5458 1804,2537 2706,5732 2706,9585 0,5747 -1804,10119 -5411,13116 -3608,2996 -8867,4494 -15776,4494l-28342 0 0 -63287 27791 0c6727,0 11848,1436 15364,4310 3516,2874 5274,7093 5274,12658 0,3241 -826,6053 -2477,8438 -1651,2385 -4005,4128 -7062,5228zm-30543 -23297l0 19904 19444 0c4158,0 7262,-811 9310,-2431 2048,-1620 3073,-4112 3073,-7475 0,-3363 -1009,-5870 -3027,-7521 -2018,-1651 -5075,-2477 -9172,-2477l-19628 0zm20178 48612c4280,0 7460,-886 9539,-2660 2079,-1773 3119,-4494 3119,-8163 0,-7032 -4403,-10548 -13208,-10548l-19628 0 0 21371 20178 0zm-12678 -41112l0 4904 11944 0c1502,0 2694,-115 3571,-344 543,-141 914,-291 1110,-446 7,-5 0,-18 20,-67 121,-295 182,-812 182,-1549 0,-997 -92,-1572 -273,-1720 -187,-153 -521,-295 -995,-423 -875,-236 -2021,-355 -3431,-355l-12128 0zm12678 33612c1512,0 2715,-124 3603,-372 514,-143 873,-302 1073,-472 64,-55 132,-174 200,-352 188,-492 282,-1202 282,-2127 0,-1123 -154,-1808 -460,-2052 -830,-663 -2581,-996 -5248,-996l-12128 0 0 6371 12678 0z"/>
  </g>
  <g>
   <path id="1" class="fil1" d="M197685 438543c428,494 832,1009 1212,1545 2741,3854 4112,8496 4112,13921 0,3821 -647,7299 -1939,10431 -1372,3325 -3439,6136 -6197,8427 -2645,2196 -5773,3809 -9374,4835 -3313,943 -7040,1417 -11177,1417l-28342 0 -7500 0 0 -7500 0 -63287 0 -7500 7500 0 27791 0c4013,0 7650,457 10907,1370 3580,1005 6649,2552 9203,4639 2715,2219 4757,4971 6123,8250 1269,3046 1905,6451 1905,10209 0,2276 -315,4483 -941,6620l0 29c-636,2165 -1599,4181 -2884,6037 -130,188 -263,374 -399,557zm-12815 423c3485,1101 6130,2920 7933,5458 1804,2537 2706,5732 2706,9585 0,5747 -1804,10119 -5411,13116 -3608,2996 -8867,4494 -15776,4494l-28342 0 0 -63287 27791 0c6727,0 11848,1436 15364,4310 3516,2874 5274,7093 5274,12658 0,3241 -826,6053 -2477,8438 -1651,2385 -4005,4128 -7062,5228zm-30543 -23297l0 19904 19444 0c4158,0 7262,-811 9310,-2431 2048,-1620 3073,-4112 3073,-7475 0,-3363 -1009,-5870 -3027,-7521 -2018,-1651 -5075,-2477 -9172,-2477l-19628 0zm20178 48612c4280,0 7460,-886 9539,-2660 2079,-1773 3119,-4494 3119,-8163 0,-7032 -4403,-10548 -13208,-10548l-19628 0 0 21371 20178 0zm-12678 -41112l0 4904 11944 0c1502,0 2694,-115 3571,-344 543,-141 914,-291 1110,-446 7,-5 0,-18 20,-67 121,-295 182,-812 182,-1549 0,-997 -92,-1572 -273,-1720 -187,-153 -521,-295 -995,-423 -875,-236 -2021,-355 -3431,-355l-12128 0zm12678 33612c1512,0 2715,-124 3603,-372 514,-143 873,-302 1073,-472 64,-55 132,-174 200,-352 188,-492 282,-1202 282,-2127 0,-1123 -154,-1808 -460,-2052 -830,-663 -2581,-996 -5248,-996l-12128 0 0 6371 12678 0z"/>
  </g>
  <g>
   <path id="2" class="fil1" d="M211322 400832l23389 0c10508,0 18789,3026 24839,9076 3099,3099 5417,6937 6946,11506 1420,4239 2130,9022 2130,14342l0 8347c0,5324 -714,10110 -2141,14354 -1540,4580 -3869,8428 -6981,11540l-15 -15c-3114,3111 -6853,5434 -11208,6967 -4109,1446 -8695,2170 -13754,2170l-23205 0 -7500 0 0 -7500 0 -63287 0 -7500 7500 0zm0 7500l23389 0c8438,0 14950,2293 19536,6879 4586,4586 6879,11434 6879,20545l0 8347c0,9111 -2308,15974 -6925,20591 -4616,4617 -11174,6925 -19674,6925l-23205 0 0 -63287zm23389 55858c6115,0 10655,-1621 13620,-4862 2966,-3240 4449,-8255 4449,-15042l0 -8071c0,-6971 -1483,-12123 -4449,-15455 -2965,-3333 -7505,-4999 -13620,-4999l-15042 0 0 48429 15042 0zm0 -7500c2196,0 4022,-260 5471,-777 1143,-407 2025,-951 2641,-1624 691,-755 1248,-1844 1667,-3261 526,-1779 790,-4028 790,-6742l0 -8071c0,-5077 -849,-8570 -2545,-10475 -651,-732 -1523,-1299 -2611,-1698 -1417,-520 -3223,-781 -5413,-781l-7542 0 0 33429 7542 0z"/>
  </g>
  <g>
   <path id="3" class="fil1" d="M296659 480036c-3880,0 -7458,-533 -10729,-1596 -3442,-1119 -6481,-2823 -9114,-5111 -5467,-4750 -8202,-11009 -8202,-18770l0 -1376c0,-2339 304,-4618 912,-6836 624,-2276 1557,-4368 2794,-6270 491,-756 1025,-1475 1600,-2158 -191,-274 -377,-554 -557,-839 -1124,-1778 -1968,-3690 -2530,-5729 -562,-2037 -843,-4117 -843,-6235l0 -1192c0,-4684 1186,-8898 3557,-12636 1186,-1872 2613,-3532 4272,-4976 1575,-1371 3420,-2563 5528,-3572 3935,-1884 8373,-2826 13312,-2826 4951,0 9395,933 13329,2796 2057,974 3914,2176 5563,3602 1705,1473 3145,3134 4313,4976 2371,3738 3557,7952 3557,12636l0 1192c0,4451 -1150,8459 -3448,12023 -180,279 -365,553 -556,822 582,696 1120,1426 1611,2190 1220,1901 2144,3969 2765,6202 608,2184 912,4431 912,6738l0 1376c0,3748 -676,7200 -2025,10348 -1388,3241 -3460,6061 -6207,8454l13 14c-2639,2296 -5682,4012 -9124,5145 -3254,1071 -6824,1608 -10703,1608zm0 -7500c-6237,0 -11220,-1620 -14950,-4861 -3730,-3241 -5595,-7613 -5595,-13116l0 -1376c0,-3485 825,-6497 2476,-9034 1651,-2538 4067,-4479 7246,-5825 -2629,-1162 -4677,-2904 -6145,-5228 -1467,-2323 -2201,-4983 -2201,-7980l0 -1192c0,-3241 795,-6115 2385,-8622 1589,-2507 3821,-4448 6695,-5824 2874,-1376 6237,-2064 10089,-2064 3853,0 7231,688 10136,2064 2904,1376 5151,3317 6741,5824 1590,2507 2385,5381 2385,8622l0 1192c0,2997 -749,5657 -2247,7980 -1498,2324 -3532,4066 -6100,5228 3119,1346 5504,3302 7155,5870 1651,2569 2476,5534 2476,8897l0 1376c0,5503 -1880,9891 -5641,13162 -3760,3272 -8729,4907 -14905,4907zm0 -37697c3486,0 6192,-856 8118,-2568 1926,-1712 2889,-4036 2889,-6971l0 -1376c0,-2874 -978,-5136 -2935,-6787 -1957,-1651 -4647,-2477 -8072,-2477 -3363,0 -6023,826 -7979,2477 -1957,1651 -2935,3913 -2935,6787l0 1376c0,2935 963,5259 2889,6971 1926,1712 4601,2568 8025,2568zm0 30451c3853,0 6864,-963 9035,-2889 2171,-1926 3256,-4601 3256,-8026l0 -1467c0,-3363 -1085,-6008 -3256,-7934 -2171,-1926 -5182,-2889 -9035,-2889 -3852,0 -6863,963 -9034,2889 -2171,1926 -3256,4571 -3256,7934l0 1467c0,3425 1085,6100 3256,8026 2171,1926 5182,2889 9034,2889zm0 -37951c1594,0 2641,-222 3138,-664 113,-100 192,-203 233,-302l10 4c83,-221 126,-580 126,-1077l0 -1376c0,-458 -31,-758 -89,-893 -13,-30 -74,-92 -180,-181l12 -14c-190,-154 -479,-292 -861,-409l2 -8c-577,-172 -1375,-259 -2391,-259 -972,0 -1747,90 -2320,267 -340,105 -618,248 -825,423 -106,89 -167,151 -180,181 -59,136 -89,435 -89,893l0 1376c0,697 124,1157 369,1375 497,442 1513,664 3045,664zm0 30451c1982,0 3345,-329 4084,-985 186,-165 337,-390 450,-668 171,-421 257,-1010 257,-1762l0 -1467c0,-738 -77,-1294 -228,-1664 -107,-260 -268,-487 -479,-674 -297,-264 -705,-479 -1221,-644l3 -8c-708,-221 -1664,-333 -2866,-333 -1981,0 -3344,329 -4083,985 -211,187 -372,414 -479,674 -151,370 -228,926 -228,1664l0 1467c0,752 86,1341 257,1762 113,278 264,503 450,668 297,264 706,480 1221,644l-3 8c707,221 1664,333 2865,333z"/>
  </g>
  <g>
   <path class="fil1" d="M451378 151914c945,864 1788,1818 2529,2862 2428,3414 3643,7575 3643,12476 0,3503 -582,6668 -1744,9484 -1215,2945 -3043,5433 -5483,7460 -2364,1963 -5189,3413 -8467,4347 -3084,878 -6583,1319 -10493,1319l-28342 0 -5000 0 0 -5000 0 -63287 0 -5000 5000 0 27791 0c3798,0 7211,425 10234,1272 3239,908 6005,2300 8294,4171 2395,1958 4197,4382 5401,7273 1139,2734 1709,5819 1709,9252 0,2068 -278,4053 -834,5946 -562,1914 -1409,3689 -2541,5324 -517,746 -1083,1447 -1697,2101zm-9467 295c3485,1101 6130,2920 7933,5458 1804,2537 2706,5732 2706,9585 0,5747 -1804,10119 -5411,13116 -3608,2996 -8867,4494 -15776,4494l-28342 0 0 -63287 27791 0c6727,0 11848,1436 15364,4310 3516,2874 5274,7093 5274,12658 0,3241 -826,6053 -2477,8438 -1651,2385 -4005,4128 -7062,5228zm-30543 -23297l0 19904 19444 0c4158,0 7262,-811 9310,-2431 2048,-1620 3073,-4112 3073,-7475 0,-3363 -1009,-5870 -3027,-7521 -2018,-1651 -5075,-2477 -9172,-2477l-19628 0zm20178 48612c4280,0 7460,-886 9539,-2660 2079,-1773 3119,-4494 3119,-8163 0,-7032 -4403,-10548 -13208,-10548l-19628 0 0 21371 20178 0zm-15178 -43612l0 9904 14444 0c1694,0 3094,-145 4196,-432 879,-229 1556,-532 2028,-905 335,-265 598,-625 782,-1073 250,-610 377,-1444 377,-2496 0,-1786 -397,-3005 -1191,-3654 -460,-376 -1106,-678 -1932,-901 -1092,-295 -2453,-443 -4076,-443l-14628 0zm15178 38612c1721,0 3144,-158 4267,-470 873,-243 1551,-570 2030,-979 389,-332 694,-786 913,-1359 298,-779 448,-1787 448,-3015 0,-1921 -470,-3257 -1407,-4005 -1287,-1028 -3555,-1543 -6801,-1543l-14628 0 0 11371 15178 0z"/>
  </g>
  <g>
   <path id="1" class="fil1" d="M491687 190412c-9175,0 -16462,-2476 -21860,-7427 -2775,-2546 -4863,-5615 -6256,-9201 -1343,-3453 -2015,-7314 -2015,-11577l0 -40632 0 -5000 5000 0 8347 0 5000 0 0 5000 0 40082c0,4070 898,6984 2692,8739 1825,1785 4857,2679 9092,2679 4236,0 7268,-894 9093,-2679 1794,-1755 2692,-4669 2692,-8739l0 -40082 0 -5000 5000 0 8347 0 5000 0 0 5000 0 40632c0,4263 -672,8124 -2015,11577 -1393,3586 -3479,6655 -6256,9201 -2754,2526 -6010,4411 -9761,5648 -3594,1186 -7628,1779 -12100,1779zm0 -5000c-7888,0 -14048,-2033 -18481,-6099 -4433,-4066 -6650,-9768 -6650,-17106l0 -40632 8347 0 0 40082c0,10945 5595,16418 16784,16418 11190,0 16785,-5473 16785,-16418l0 -40082 8347 0 0 40632c0,7338 -2217,13040 -6650,17106 -4433,4066 -10594,6099 -18482,6099z"/>
  </g>
  <g>
   <path id="2" class="fil1" d="M580374 151914c945,864 1788,1818 2529,2862 2428,3414 3643,7575 3643,12476 0,3503 -582,6668 -1744,9484 -1215,2945 -3043,5433 -5483,7460 -2364,1963 -5189,3413 -8467,4347 -3084,878 -6583,1319 -10493,1319l-28342 0 -5000 0 0 -5000 0 -63287 0 -5000 5000 0 27791 0c3798,0 7211,425 10234,1272 3239,908 6005,2300 8294,4171 2395,1958 4197,4382 5401,7273 1139,2734 1709,5819 1709,9252 0,2068 -278,4053 -834,5946 -562,1914 -1409,3689 -2541,5324 -517,746 -1083,1447 -1697,2101zm-9467 295c3485,1101 6130,2920 7933,5458 1804,2537 2706,5732 2706,9585 0,5747 -1804,10119 -5411,13116 -3608,2996 -8867,4494 -15776,4494l-28342 0 0 -63287 27791 0c6727,0 11848,1436 15364,4310 3516,2874 5274,7093 5274,12658 0,3241 -826,6053 -2477,8438 -1651,2385 -4005,4128 -7062,5228zm-30543 -23297l0 19904 19444 0c4158,0 7262,-811 9310,-2431 2048,-1620 3073,-4112 3073,-7475 0,-3363 -1009,-5870 -3027,-7521 -2018,-1651 -5075,-2477 -9172,-2477l-19628 0zm20178 48612c4280,0 7460,-886 9539,-2660 2079,-1773 3119,-4494 3119,-8163 0,-7032 -4403,-10548 -13208,-10548l-19628 0 0 21371 20178 0zm-15178 -43612l0 9904 14444 0c1694,0 3094,-145 4196,-432 879,-229 1556,-532 2028,-905 335,-265 598,-625 782,-1073 250,-610 377,-1444 377,-2496 0,-1786 -397,-3005 -1191,-3654 -460,-376 -1106,-678 -1932,-901 -1092,-295 -2453,-443 -4076,-443l-14628 0zm15178 38612c1721,0 3144,-158 4267,-470 873,-243 1551,-570 2030,-979 389,-332 694,-786 913,-1359 298,-779 448,-1787 448,-3015 0,-1921 -470,-3257 -1407,-4005 -1287,-1028 -3555,-1543 -6801,-1543l-14628 0 0 11371 15178 0z"/>
  </g>
  <g>
   <path id="3" class="fil1" d="M644720 151914c945,864 1788,1818 2529,2862 2428,3414 3643,7575 3643,12476 0,3503 -582,6668 -1744,9484 -1215,2945 -3043,5433 -5483,7460 -2364,1963 -5189,3413 -8467,4347 -3084,878 -6583,1319 -10493,1319l-28342 0 -5000 0 0 -5000 0 -63287 0 -5000 5000 0 27791 0c3798,0 7211,425 10234,1272 3239,908 6005,2300 8294,4171 2395,1958 4197,4382 5401,7273 1139,2734 1709,5819 1709,9252 0,2068 -278,4053 -834,5946 -562,1914 -1409,3689 -2541,5324 -517,746 -1083,1447 -1697,2101zm-9467 295c3485,1101 6130,2920 7933,5458 1804,2537 2706,5732 2706,9585 0,5747 -1804,10119 -5411,13116 -3608,2996 -8867,4494 -15776,4494l-28342 0 0 -63287 27791 0c6727,0 11848,1436 15364,4310 3516,2874 5274,7093 5274,12658 0,3241 -826,6053 -2477,8438 -1651,2385 -4005,4128 -7062,5228zm-30543 -23297l0 19904 19444 0c4158,0 7262,-811 9310,-2431 2048,-1620 3073,-4112 3073,-7475 0,-3363 -1009,-5870 -3027,-7521 -2018,-1651 -5075,-2477 -9172,-2477l-19628 0zm20178 48612c4280,0 7460,-886 9539,-2660 2079,-1773 3119,-4494 3119,-8163 0,-7032 -4403,-10548 -13208,-10548l-19628 0 0 21371 20178 0zm-15178 -43612l0 9904 14444 0c1694,0 3094,-145 4196,-432 879,-229 1556,-532 2028,-905 335,-265 598,-625 782,-1073 250,-610 377,-1444 377,-2496 0,-1786 -397,-3005 -1191,-3654 -460,-376 -1106,-678 -1932,-901 -1092,-295 -2453,-443 -4076,-443l-14628 0zm15178 38612c1721,0 3144,-158 4267,-470 873,-243 1551,-570 2030,-979 389,-332 694,-786 913,-1359 298,-779 448,-1787 448,-3015 0,-1921 -470,-3257 -1407,-4005 -1287,-1028 -3555,-1543 -6801,-1543l-14628 0 0 11371 15178 0z"/>
  </g>
  <g>
   <path id="4" class="fil1" d="M659714 116575l8347 0 5000 0 0 5000 0 50858 30496 0 5000 0 0 5000 0 7429 0 5000 -5000 0 -43843 0 -5000 0 0 -5000 0 -63287 0 -5000 5000 0zm0 5000l8347 0 0 55858 35496 0 0 7429 -43843 0 0 -63287z"/>
  </g>
  <g>
   <path id="5" class="fil1" d="M732138 134004l0 9995 25726 0 5000 0 0 5000 0 7429 0 5000 -5000 0 -25726 0 0 11005 30862 0 5000 0 0 5000 0 7429 0 5000 -5000 0 -44209 0 -5000 0 0 -5000 0 -63287 0 -5000 5000 0 44209 0 5000 0 0 5000 0 7429 0 5000 -5000 0 -30862 0zm-5000 -5000l0 19995 30726 0 0 7429 -30726 0 0 21005 35862 0 0 7429 -44209 0 0 -63287 44209 0 0 7429 -35862 0z"/>
  </g>
  <g>
   <path id="6" class="fil1" d="M403021 201243l23389 0c9818,0 17509,2782 23071,8344 2832,2832 4951,6343 6351,10529 1329,3967 1993,8484 1993,13551l0 8347c0,5068 -669,9591 -2004,13563 -1410,4194 -3540,7717 -6386,10563 -2827,2827 -6253,4951 -10274,6366 -3833,1349 -8147,2024 -12935,2024l-23205 0 -5000 0 0 -5000 0 -63287 0 -5000 5000 0zm0 5000l23389 0c8438,0 14950,2293 19536,6879 4586,4586 6879,11434 6879,20545l0 8347c0,9111 -2308,15974 -6925,20591 -4616,4617 -11174,6925 -19674,6925l-23205 0 0 -63287zm23389 55858c6115,0 10655,-1621 13620,-4862 2966,-3240 4449,-8255 4449,-15042l0 -8071c0,-6971 -1483,-12123 -4449,-15455 -2965,-3333 -7505,-4999 -13620,-4999l-15042 0 0 48429 15042 0zm0 -5000c2484,0 4589,-308 6311,-923 1518,-541 2732,-1309 3637,-2298 955,-1043 1697,-2458 2224,-4238 597,-2021 897,-4504 897,-7445l0 -8071c0,-5708 -1060,-9755 -3179,-12135 -926,-1042 -2134,-1837 -3618,-2381 -1702,-625 -3794,-938 -6272,-938l-10042 0 0 38429 10042 0z"/>
  </g>
  <g>
   <path id="7" class="fil1" d="M490580 247564l-10402 0 0 21966 0 5000 -5000 0 -8347 0 -5000 0 0 -5000 0 -63287 0 -5000 5000 0 27608 0c8164,0 14568,1957 19208,5868 2480,2090 4337,4634 5568,7624 1185,2879 1778,6104 1778,9668 0,5737 -1543,10549 -4625,14433 -1562,1969 -3481,3616 -5751,4937 -401,233 -813,456 -1235,668l12782 22648 4199 7441 -8535 0 -9539 0 -2942 0 -1433 -2617 -13334 -24349zm2942 -5000l-18344 0 0 26966 -8347 0 0 -63287 27608 0c6971,0 12306,1559 16005,4677 3700,3119 5549,7613 5549,13483 0,4586 -1177,8362 -3531,11328 -2354,2965 -5794,4968 -10319,6008l15685 27791 -9539 0 -14767 -26966zm-18344 -7246l19444 0c4464,0 7751,-887 9860,-2660 2110,-1773 3165,-4525 3165,-8255 0,-3669 -1116,-6374 -3348,-8117 -2232,-1743 -5641,-2614 -10227,-2614l-18894 0 0 21646zm5000 -5000l14444 0c1807,0 3317,-164 4524,-489 949,-255 1661,-583 2133,-980l0 -19c386,-324 691,-774 909,-1343 305,-797 459,-1827 459,-3084 0,-2057 -472,-3455 -1414,-4191 -546,-427 -1346,-775 -2395,-1043 -1296,-330 -2886,-497 -4766,-497l-13894 0 0 11646z"/>
  </g>
  <g>
   <path id="8" class="fil1" d="M536245 201243l8347 0 5000 0 0 5000 0 63287 0 5000 -5000 0 -8347 0 -5000 0 0 -5000 0 -63287 0 -5000 5000 0zm0 5000l8347 0 0 63287 -8347 0 0 -63287z"/>
  </g>
  <g>
   <path id="9" class="fil1" d="M560349 201243l8714 0 3518 0 1189 3320 13881 38770 13668 -38750 1178 -3340 3529 0 8714 0 7177 0 -2509 6738 -23572 63287 -1215 3262 -3453 0 -6971 0 -3447 0 -1221 -3242 -23848 -63287 -2547 -6758 7215 0zm0 5000l8714 0 18619 52005 18344 -52005 8714 0 -23572 63287 -6971 0 -23848 -63287z"/>
  </g>
  <g>
   <path id="10" class="fil1" d="M643202 218672l0 9995 25726 0 5000 0 0 5000 0 7429 0 5000 -5000 0 -25726 0 0 11005 30862 0 5000 0 0 5000 0 7429 0 5000 -5000 0 -44209 0 -5000 0 0 -5000 0 -63287 0 -5000 5000 0 44209 0 5000 0 0 5000 0 7429 0 5000 -5000 0 -30862 0zm-5000 -5000l0 19995 30726 0 0 7429 -30726 0 0 21005 35862 0 0 7429 -44209 0 0 -63287 44209 0 0 7429 -35862 0z"/>
  </g>
  <g>
   <path id="11" class="fil1" d="M422557 360115c-3626,0 -6947,-491 -9958,-1469 -3126,-1016 -5878,-2557 -8254,-4622 -4888,-4247 -7333,-9877 -7333,-16886l0 -1376c0,-2141 272,-4203 814,-6182 553,-2019 1382,-3876 2482,-5567 800,-1230 1728,-2354 2782,-3368 -626,-718 -1199,-1490 -1720,-2314 -992,-1571 -1740,-3262 -2237,-5065l0 -19c-495,-1801 -745,-3653 -745,-5552l0 -1192c0,-4204 1056,-7971 3166,-11298 1039,-1638 2310,-3113 3812,-4421l-8 -9c1422,-1237 3077,-2308 4962,-3210 3580,-1714 7661,-2572 12237,-2572 4585,0 8674,851 12265,2552 1856,879 3524,1957 4996,3230 1511,1304 2791,2783 3835,4430 2110,3327 3166,7094 3166,11298l0 1192c0,3965 -1017,7525 -3048,10675 -527,817 -1105,1583 -1734,2298 1062,1033 1993,2170 2789,3410 1091,1697 1913,3538 2463,5518 542,1949 814,3975 814,6074l0 1376c0,3416 -607,6542 -1820,9371 -1239,2893 -3091,5412 -5548,7552l8 9c-2385,2075 -5141,3628 -8264,4656 -2998,987 -6307,1481 -9922,1481zm0 -5000c-6237,0 -11220,-1620 -14950,-4861 -3730,-3241 -5595,-7613 -5595,-13116l0 -1376c0,-3485 825,-6497 2476,-9034 1651,-2538 4067,-4479 7246,-5825 -2629,-1162 -4677,-2904 -6145,-5228 -1467,-2323 -2201,-4983 -2201,-7980l0 -1192c0,-3241 795,-6115 2385,-8622 1589,-2507 3821,-4448 6695,-5824 2874,-1376 6237,-2064 10089,-2064 3853,0 7231,688 10136,2064 2904,1376 5151,3317 6741,5824 1590,2507 2385,5381 2385,8622l0 1192c0,2997 -749,5657 -2247,7980 -1498,2324 -3532,4066 -6100,5228 3119,1346 5504,3302 7155,5870 1651,2569 2476,5534 2476,8897l0 1376c0,5503 -1880,9891 -5641,13162 -3760,3272 -8729,4907 -14905,4907zm0 -37697c3486,0 6192,-856 8118,-2568 1926,-1712 2889,-4036 2889,-6971l0 -1376c0,-2874 -978,-5136 -2935,-6787 -1957,-1651 -4647,-2477 -8072,-2477 -3363,0 -6023,826 -7979,2477 -1957,1651 -2935,3913 -2935,6787l0 1376c0,2935 963,5259 2889,6971 1926,1712 4601,2568 8025,2568zm0 30451c3853,0 6864,-963 9035,-2889 2171,-1926 3256,-4601 3256,-8026l0 -1467c0,-3363 -1085,-6008 -3256,-7934 -2171,-1926 -5182,-2889 -9035,-2889 -3852,0 -6863,963 -9034,2889 -2171,1926 -3256,4571 -3256,7934l0 1467c0,3425 1085,6100 3256,8026 2171,1926 5182,2889 9034,2889zm0 -35451c2224,0 3825,-433 4798,-1298 396,-352 690,-757 878,-1211l7 3c215,-530 324,-1208 324,-2033l0 -1376c0,-784 -102,-1412 -304,-1879 -171,-396 -457,-764 -854,-1099 -459,-388 -1037,-690 -1727,-901 -836,-256 -1878,-385 -3122,-385 -1207,0 -2226,129 -3052,385 -671,208 -1240,509 -1704,901 -397,335 -683,703 -854,1099 -202,468 -304,1095 -304,1879l0 1376c0,1443 404,2525 1209,3241 973,865 2542,1298 4705,1298zm0 30451c2606,0 4518,-540 5734,-1619 485,-430 858,-963 1114,-1596 295,-727 443,-1628 443,-2700l0 -1467c0,-1053 -142,-1925 -423,-2611 -252,-615 -632,-1147 -1134,-1593 -559,-496 -1264,-881 -2109,-1151l2 -5c-972,-308 -2183,-463 -3627,-463 -2606,0 -4517,540 -5733,1619 -502,446 -882,979 -1134,1593 -281,686 -423,1558 -423,2611l0 1467c0,1072 148,1973 443,2700 256,632 629,1166 1114,1596 558,495 1263,881 2109,1151l-2 5c971,308 2182,463 3626,463z"/>
  </g>
  <g>
   <path class="fil1" d="M852964 12418l0 -66712 0 -5000 5000 0 23328 0c2622,0 5080,242 7364,718 2384,497 4539,1256 6456,2268 1919,1007 3610,2208 5070,3599 1481,1411 2717,3017 3701,4815l1 -1c963,1735 1681,3559 2154,5462 473,1900 708,3855 708,5857 0,1761 -166,3417 -495,4966 -352,1651 -894,3155 -1623,4505 -679,1256 -1494,2415 -2436,3466 -247,276 -501,542 -762,798 760,604 1477,1269 2149,1994l0 19c1159,1252 2169,2628 3023,4121 933,1632 1634,3438 2097,5409 440,1876 661,3877 661,5999 0,2084 -244,4081 -729,5991 -492,1936 -1236,3772 -2228,5508l-8 -5c-1038,1831 -2361,3456 -3962,4867l-10 -11c-1544,1361 -3347,2534 -5408,3520l0 20c-2001,953 -4304,1669 -6903,2144 -2488,455 -5171,683 -8040,683l-24108 0 -5000 0 0 -5000zm5000 0l0 -66712 23328 0c4647,0 8484,810 11496,2400 3027,1590 5274,3730 6741,6421 1483,2675 2217,5641 2217,8897 0,2874 -505,5243 -1513,7108 -1009,1865 -2339,3348 -3975,4433 -1636,1086 -3409,1881 -5320,2400l0 658c2033,122 4082,840 6145,2155 2064,1299 3792,3164 5183,5595 1391,2431 2094,5412 2094,8928 0,3347 -764,6344 -2293,9019 -1513,2675 -3913,4785 -7200,6359 -3272,1559 -7537,2339 -12795,2339l-24108 0zm8087 -7170l16021 0c5274,0 9034,-1024 11251,-3072 2232,-2049 3348,-4540 3348,-7475 0,-2263 -581,-4357 -1728,-6268 -1162,-1926 -2797,-3470 -4922,-4632 -2125,-1162 -4647,-1743 -7552,-1743l-16418 0 0 23190zm0 -30222l14981 0c3654,0 6726,-1054 9249,-3164 2522,-2094 3776,-4907 3776,-8438 0,-2920 -1025,-5412 -3058,-7476 -2048,-2048 -5274,-3072 -9707,-3072l-15241 0 0 22150zm5000 25222l11021 0c3982,0 6614,-582 7872,-1744 620,-570 1068,-1159 1339,-1764 258,-576 388,-1258 388,-2039 0,-715 -80,-1360 -238,-1933l0 -19c-161,-585 -416,-1169 -759,-1743l-8 5c-352,-583 -766,-1101 -1241,-1548 -521,-491 -1119,-922 -1787,-1287 -650,-355 -1389,-629 -2212,-819 -863,-199 -1851,-299 -2957,-299l-11418 0 0 13190zm0 -30222l9981 0c1290,0 2440,-174 3447,-518 944,-323 1812,-815 2599,-1474l19 0c662,-550 1153,-1180 1467,-1883 328,-735 493,-1646 493,-2727 0,-832 -126,-1554 -376,-2164l0 -20c-248,-605 -651,-1195 -1208,-1766l-9 9c-450,-450 -1093,-809 -1928,-1073 -1124,-355 -2538,-534 -4244,-534l-10241 0 0 12150z"/>
  </g>
  <g>
   <path id="1" class="fil1" d="M963991 -59294l8071 0 5000 0 0 5000 0 44179c0,2661 -326,5233 -975,7710 -655,2498 -1639,4846 -2943,7033 -1316,2199 -2898,4163 -4744,5885 -1826,1704 -3908,3171 -6242,4400l4 8c-2304,1225 -4832,2148 -7581,2767 -2685,605 -5500,907 -8445,907 -2938,0 -5750,-302 -8432,-907 -2746,-619 -5274,-1542 -7579,-2767l4 -8c-2334,-1229 -4416,-2696 -6242,-4400 -1846,-1722 -3428,-3686 -4744,-5885 -1315,-2190 -2302,-4529 -2955,-7008 -652,-2475 -979,-5056 -979,-7735l0 -44179 0 -5000 5000 0 8087 0 5000 0 0 5000 0 43522c0,1828 280,3450 837,4864 536,1361 1349,2583 2433,3662l19 0c1070,1070 2341,1871 3805,2401 1608,582 3526,873 5746,873 2246,0 4175,-291 5784,-871 1453,-524 2721,-1327 3797,-2403l19 0c1080,-1075 1890,-2297 2424,-3658 553,-1411 831,-3035 831,-4868l0 -43522 0 -5000 5000 0zm0 5000l8071 0 0 44179c0,4556 -1070,8622 -3195,12184 -2140,3577 -5151,6390 -9049,8438 -3883,2064 -8439,3088 -13682,3088 -5228,0 -9784,-1024 -13667,-3088 -3898,-2048 -6909,-4861 -9049,-8438 -2140,-3562 -3211,-7628 -3211,-12184l0 -44179 8087 0 0 43522c0,4892 1590,8912 4754,12061 3165,3165 7537,4739 13086,4739 5580,0 9952,-1574 13116,-4739 3164,-3149 4739,-7169 4739,-12061l0 -43522z"/>
  </g>
  <g>
   <path id="2" class="fil1" d="M985800 12418l0 -66712 0 -5000 5000 0 23328 0c2622,0 5080,242 7364,718 2384,497 4539,1256 6456,2268 1919,1007 3610,2208 5070,3599 1481,1411 2717,3017 3701,4815l1 -1c963,1735 1681,3559 2154,5462 473,1900 708,3855 708,5857 0,1761 -166,3417 -495,4966 -352,1651 -894,3155 -1623,4505 -679,1256 -1494,2415 -2436,3466 -247,276 -501,542 -762,798 760,604 1477,1269 2149,1994l0 19c1159,1252 2169,2628 3023,4121 933,1632 1634,3438 2097,5409 440,1876 661,3877 661,5999 0,2084 -244,4081 -729,5991 -492,1936 -1236,3772 -2228,5508l-8 -5c-1038,1831 -2361,3456 -3962,4867l-10 -11c-1544,1361 -3347,2534 -5408,3520l0 20c-2001,953 -4304,1669 -6903,2144 -2488,455 -5171,683 -8040,683l-24108 0 -5000 0 0 -5000zm5000 0l0 -66712 23328 0c4647,0 8484,810 11496,2400 3027,1590 5274,3730 6741,6421 1483,2675 2217,5641 2217,8897 0,2874 -505,5243 -1513,7108 -1009,1865 -2339,3348 -3975,4433 -1636,1086 -3409,1881 -5320,2400l0 658c2033,122 4082,840 6145,2155 2064,1299 3792,3164 5183,5595 1391,2431 2094,5412 2094,8928 0,3347 -764,6344 -2293,9019 -1513,2675 -3913,4785 -7200,6359 -3272,1559 -7537,2339 -12795,2339l-24108 0zm8087 -7170l16021 0c5274,0 9034,-1024 11251,-3072 2232,-2049 3348,-4540 3348,-7475 0,-2263 -581,-4357 -1728,-6268 -1162,-1926 -2797,-3470 -4922,-4632 -2125,-1162 -4647,-1743 -7552,-1743l-16418 0 0 23190zm0 -30222l14981 0c3654,0 6726,-1054 9249,-3164 2522,-2094 3776,-4907 3776,-8438 0,-2920 -1025,-5412 -3058,-7476 -2048,-2048 -5274,-3072 -9707,-3072l-15241 0 0 22150zm5000 25222l11021 0c3982,0 6614,-582 7872,-1744 620,-570 1068,-1159 1339,-1764 258,-576 388,-1258 388,-2039 0,-715 -80,-1360 -238,-1933l0 -19c-161,-585 -416,-1169 -759,-1743l-8 5c-352,-583 -766,-1101 -1241,-1548 -521,-491 -1119,-922 -1787,-1287 -650,-355 -1389,-629 -2212,-819 -863,-199 -1851,-299 -2957,-299l-11418 0 0 13190zm0 -30222l9981 0c1290,0 2440,-174 3447,-518 944,-323 1812,-815 2599,-1474l19 0c662,-550 1153,-1180 1467,-1883 328,-735 493,-1646 493,-2727 0,-832 -126,-1554 -376,-2164l0 -20c-248,-605 -651,-1195 -1208,-1766l-9 9c-450,-450 -1093,-809 -1928,-1073 -1124,-355 -2538,-534 -4244,-534l-10241 0 0 12150z"/>
  </g>
  <g>
   <path id="3" class="fil1" d="M1048045 12418l0 -66712 0 -5000 5000 0 23328 0c2622,0 5080,242 7364,718 2384,497 4539,1256 6456,2268 1919,1007 3610,2208 5070,3599 1481,1411 2717,3017 3701,4815l1 -1c963,1735 1681,3559 2154,5462 473,1900 708,3855 708,5857 0,1761 -166,3417 -495,4966 -352,1651 -894,3155 -1623,4505 -679,1256 -1494,2415 -2436,3466 -247,276 -501,542 -762,798 760,604 1477,1269 2149,1994l0 19c1159,1252 2169,2628 3023,4121 933,1632 1634,3438 2097,5409 440,1876 661,3877 661,5999 0,2084 -244,4081 -729,5991 -492,1936 -1236,3772 -2228,5508l-8 -5c-1038,1831 -2361,3456 -3962,4867l-10 -11c-1544,1361 -3347,2534 -5408,3520l0 20c-2001,953 -4304,1669 -6903,2144 -2488,455 -5171,683 -8040,683l-24108 0 -5000 0 0 -5000zm5000 0l0 -66712 23328 0c4647,0 8484,810 11496,2400 3027,1590 5274,3730 6741,6421 1483,2675 2217,5641 2217,8897 0,2874 -505,5243 -1513,7108 -1009,1865 -2339,3348 -3975,4433 -1636,1086 -3409,1881 -5320,2400l0 658c2033,122 4082,840 6145,2155 2064,1299 3792,3164 5183,5595 1391,2431 2094,5412 2094,8928 0,3347 -764,6344 -2293,9019 -1513,2675 -3913,4785 -7200,6359 -3272,1559 -7537,2339 -12795,2339l-24108 0zm8087 -7170l16021 0c5274,0 9034,-1024 11251,-3072 2232,-2049 3348,-4540 3348,-7475 0,-2263 -581,-4357 -1728,-6268 -1162,-1926 -2797,-3470 -4922,-4632 -2125,-1162 -4647,-1743 -7552,-1743l-16418 0 0 23190zm0 -30222l14981 0c3654,0 6726,-1054 9249,-3164 2522,-2094 3776,-4907 3776,-8438 0,-2920 -1025,-5412 -3058,-7476 -2048,-2048 -5274,-3072 -9707,-3072l-15241 0 0 22150zm5000 25222l11021 0c3982,0 6614,-582 7872,-1744 620,-570 1068,-1159 1339,-1764 258,-576 388,-1258 388,-2039 0,-715 -80,-1360 -238,-1933l0 -19c-161,-585 -416,-1169 -759,-1743l-8 5c-352,-583 -766,-1101 -1241,-1548 -521,-491 -1119,-922 -1787,-1287 -650,-355 -1389,-629 -2212,-819 -863,-199 -1851,-299 -2957,-299l-11418 0 0 13190zm0 -30222l9981 0c1290,0 2440,-174 3447,-518 944,-323 1812,-815 2599,-1474l19 0c662,-550 1153,-1180 1467,-1883 328,-735 493,-1646 493,-2727 0,-832 -126,-1554 -376,-2164l0 -20c-248,-605 -651,-1195 -1208,-1766l-9 9c-450,-450 -1093,-809 -1928,-1073 -1124,-355 -2538,-534 -4244,-534l-10241 0 0 12150z"/>
  </g>
  <g>
   <path id="4" class="fil1" d="M1110290 12418l0 -66712 0 -5000 5000 0 8087 0 5000 0 0 5000 0 54542 26002 0 5000 0 0 5000 0 7170 0 5000 -5000 0 -39089 0 -5000 0 0 -5000zm5000 0l0 -66712 8087 0 0 59542 31002 0 0 7170 -39089 0z"/>
  </g>
  <g>
   <path id="5" class="fil1" d="M1164463 12418l0 -66712 0 -5000 5000 0 40266 0 5000 0 0 5000 0 7170 0 5000 -5000 0 -27179 0 0 12548 25100 0 5000 0 0 5000 0 7154 0 5000 -5000 0 -25100 0 0 12670 27699 0 5000 0 0 5000 0 7170 0 5000 -5000 0 -40786 0 -5000 0 0 -5000zm5000 0l0 -66712 40266 0 0 7170 -32179 0 0 22548 30100 0 0 7154 -30100 0 0 22670 32699 0 0 7170 -40786 0z"/>
  </g>
  <g>
   <path id="6" class="fil1" d="M878556 101776l-20592 0 -5000 0 0 -5000 0 -66712 0 -5000 5000 0 21509 0c7343,0 13711,1558 19102,4674 2705,1564 5122,3496 7245,5788 2111,2279 3886,4868 5321,7756 1407,2860 2468,5995 3173,9405 690,3337 1038,6876 1038,10611 0,7699 -1414,14413 -4241,20138 -1459,2945 -3262,5560 -5403,7840 -2142,2280 -4620,4219 -7432,5816 -2797,1584 -5865,2766 -9193,3541 -3268,761 -6780,1143 -10527,1143zm0 -5000l-20592 0 0 -66712 21509 0c6466,0 12000,1330 16602,3990 4601,2660 8132,6482 10593,11435 2446,4968 3684,10899 3684,17809 0,6940 -1238,12917 -3714,17931 -2477,4999 -6084,8836 -10823,11527 -4724,2675 -10487,4020 -17259,4020zm-12505 -7170l11985 0c8270,0 14416,-2354 18451,-7047 4021,-4708 6039,-11129 6039,-19261 0,-8087 -1972,-14446 -5932,-19093 -3944,-4648 -9829,-6971 -17641,-6971l-12902 0 0 52372zm5000 -5000l6985 0c3527,0 6538,-478 9032,-1430 2295,-876 4173,-2164 5630,-3859 1562,-1829 2748,-4029 3552,-6593 850,-2711 1276,-5855 1276,-9426 0,-3569 -416,-6694 -1247,-9372 -782,-2519 -1941,-4680 -3474,-6479l-20 -19c-1422,-1675 -3222,-2944 -5395,-3803 -2346,-927 -5160,-1391 -8437,-1391l-7902 0 0 42372z"/>
  </g>
  <g>
   <path id="7" class="fil1" d="M921476 96776l0 -66712 0 -5000 5000 0 22549 0c2894,0 5601,262 8115,782l20 0c2624,545 4971,1367 7034,2464l-4 8c2092,1111 3935,2445 5521,3998 1600,1569 2930,3365 3983,5380l20 0c987,1899 1735,3945 2238,6135 495,2148 743,4377 743,6687 0,2598 -315,5089 -937,7463l0 20c-633,2410 -1584,4646 -2847,6702l-20 19c-1355,2191 -3062,4061 -5112,5608 -528,398 -1078,775 -1651,1131l12541 22932 4037 7383 -8412 0 -9371 0 -2973 0 -1422 -2637 -12640 -23427 -8325 0 0 21064 0 5000 -5000 0 -8087 0 -5000 0 0 -5000zm5000 0l0 -66712 22549 0c5212,0 9493,887 12825,2660 3348,1773 5824,4204 7430,7277 1605,3088 2415,6588 2415,10517 0,4433 -1024,8301 -3042,11587 -2033,3287 -5182,5657 -9432,7109l15073 27562 -9371 0 -14079 -26095c-535,31 -1101,31 -1697,31l-14584 0 0 26064 -8087 0zm8087 -33356l14324 0c5350,0 9157,-1146 11434,-3455 2278,-2293 3425,-5442 3425,-9447 0,-4005 -1147,-7231 -3440,-9646 -2293,-2431 -6130,-3638 -11541,-3638l-14202 0 0 26186zm5000 -5000l9324 0c2199,0 4014,-216 5443,-647 1091,-329 1904,-765 2436,-1304l20 -20c620,-625 1093,-1381 1414,-2265 363,-1001 546,-2224 546,-3666 0,-1436 -188,-2686 -562,-3744l-6 2c-343,-961 -839,-1786 -1485,-2466l-20 -20c-545,-578 -1364,-1040 -2452,-1383 -1426,-448 -3245,-673 -5456,-673l-9202 0 0 16186z"/>
  </g>
  <g>
   <path id="8" class="fil1" d="M1000768 30064l0 66712 0 5000 -5000 0 -8087 0 -5000 0 0 -5000 0 -66712 0 -5000 5000 0 8087 0 5000 0 0 5000zm-5000 0l0 66712 -8087 0 0 -66712 8087 0z"/>
  </g>
  <g>
   <path id="9" class="fil1" d="M1021935 28404l15493 43920 15481 -43920 1177 -3340 3530 0 8469 0 7154 0 -2466 6719 -24490 66712 -1205 3281 -3483 0 -8331 0 -3483 0 -1205 -3281 -24505 -66712 -2469 -6719 7157 0 8469 0 3528 0 1179 3340zm-4707 1660l19812 56164 779 0 19797 -56164 8469 0 -24490 66712 -8331 0 -24505 -66712 8469 0z"/>
  </g>
  <g>
   <path id="10" class="fil1" d="M1074090 96776l0 -66712 0 -5000 5000 0 40266 0 5000 0 0 5000 0 7170 0 5000 -5000 0 -27179 0 0 12548 25100 0 5000 0 0 5000 0 7154 0 5000 -5000 0 -25100 0 0 12670 27699 0 5000 0 0 5000 0 7170 0 5000 -5000 0 -40786 0 -5000 0 0 -5000zm5000 0l0 -66712 40266 0 0 7170 -32179 0 0 22548 30100 0 0 7154 -30100 0 0 22670 32699 0 0 7170 -40786 0z"/>
  </g>
  <g>
   <path id="11" class="fil1" d="M878158 187051c-2512,0 -4949,-243 -7301,-721 -2370,-482 -4579,-1200 -6621,-2148 -2115,-982 -4001,-2160 -5648,-3525 -1667,-1380 -3125,-2990 -4369,-4818l-9 6c-1246,-1824 -2182,-3797 -2807,-5909 -603,-2043 -903,-4219 -895,-6516 -7,-1795 158,-3504 500,-5120 355,-1678 901,-3298 1634,-4855 718,-1513 1579,-2925 2586,-4229 955,-1239 2045,-2374 3267,-3395 -661,-708 -1274,-1477 -1839,-2308 -1235,-1804 -2164,-3755 -2784,-5843 -600,-2019 -896,-4167 -888,-6433 -7,-2180 262,-4237 808,-6165 566,-1996 1426,-3879 2576,-5645 1107,-1705 2437,-3242 3982,-4600l-9 -10c1501,-1319 3218,-2468 5146,-3441 1869,-948 3890,-1663 6053,-2141 2154,-477 4362,-715 6618,-715 2238,0 4429,237 6566,712 2159,481 4176,1195 6045,2144 1925,977 3635,2126 5129,3441 1516,1335 2840,2860 3970,4571l20 39c1133,1739 1993,3610 2575,5606 568,1954 861,4017 869,6185l0 40c-8,2251 -326,4401 -945,6440 -634,2088 -1566,4031 -2788,5815 -569,831 -1185,1601 -1848,2309 1229,1045 2320,2188 3266,3424 953,1243 1802,2635 2538,4164l8 -4c737,1523 1298,3143 1680,4855 368,1647 556,3360 566,5136l0 40c-10,2314 -324,4487 -934,6508l0 19c-627,2079 -1575,4042 -2830,5881 -1236,1805 -2698,3412 -4384,4809 -1622,1346 -3493,2519 -5607,3509 -2067,964 -4271,1689 -6611,2167 -2341,478 -4770,721 -7285,721zm0 -5000c-4463,0 -8407,-810 -11832,-2400 -3424,-1590 -6084,-3806 -7995,-6619 -1911,-2798 -2858,-6008 -2843,-9615 -15,-2829 535,-5443 1666,-7843 1131,-2384 2675,-4402 4647,-6023 1957,-1620 4158,-2644 6589,-3072l0 -398c-3195,-825 -5732,-2614 -7613,-5381 -1895,-2767 -2828,-5931 -2813,-9462 -15,-3394 841,-6421 2584,-9096 1727,-2660 4127,-4769 7185,-6313 3042,-1544 6527,-2309 10425,-2309 3868,0 7323,765 10365,2309 3042,1544 5427,3653 7185,6313 1742,2675 2629,5702 2644,9096 -15,3531 -978,6695 -2874,9462 -1895,2767 -4418,4556 -7536,5381l0 398c2400,428 4571,1452 6512,3072 1926,1621 3470,3639 4617,6023 1162,2400 1742,5014 1758,7843 -16,3607 -994,6817 -2905,9615 -1926,2813 -4586,5029 -7979,6619 -3409,1590 -7323,2400 -11787,2400zm0 -7169c4525,0 8102,-1086 10747,-3241 2629,-2156 3959,-5029 3990,-8622 -31,-2507 -688,-4739 -1957,-6665 -1284,-1941 -3027,-3455 -5228,-4571 -2201,-1100 -4724,-1651 -7552,-1651 -2843,0 -5365,551 -7597,1651 -2232,1116 -3975,2630 -5244,4571 -1268,1926 -1895,4158 -1880,6665 -15,3593 1284,6466 3914,8622 2629,2155 6237,3241 10807,3241zm0 -31659c3593,0 6543,-1055 8867,-3149 2323,-2095 3500,-4862 3516,-8316 -16,-3394 -1162,-6100 -3440,-8148 -2262,-2034 -5243,-3058 -8943,-3058 -3730,0 -6726,1024 -9004,3058 -2262,2048 -3393,4754 -3363,8148 -30,3454 1116,6221 3440,8316 2308,2094 5289,3149 8927,3149zm0 26659c1778,0 3323,-199 4636,-592l-2 -5c1180,-356 2172,-862 2968,-1511l2 2c708,-585 1236,-1252 1581,-1997 365,-789 557,-1706 571,-2744 -12,-759 -119,-1482 -318,-2158l0 -19c-183,-629 -455,-1216 -809,-1756l-9 6c-402,-608 -867,-1142 -1391,-1599 -544,-475 -1188,-901 -1923,-1273l4 -8c-684,-339 -1471,-607 -2353,-800 -902,-197 -1890,-296 -2957,-296 -1075,0 -2068,100 -2973,296 -881,191 -1687,469 -2417,828l-4 -8c-719,361 -1357,783 -1905,1261 -509,444 -964,970 -1362,1579l-20 0c-336,511 -596,1088 -775,1726 -194,689 -289,1420 -285,2185l0 20c-4,1066 175,2002 536,2799 333,735 855,1395 1562,1975 781,640 1764,1140 2942,1493 1321,396 2891,596 4701,596zm0 -31659c1238,0 2321,-167 3249,-496 843,-300 1603,-756 2278,-1364 625,-563 1084,-1188 1373,-1871 327,-774 497,-1686 503,-2734 -6,-1018 -168,-1902 -482,-2645 -275,-653 -716,-1251 -1318,-1792 -626,-563 -1360,-991 -2194,-1276 -959,-328 -2096,-493 -3409,-493 -1330,0 -2479,165 -3444,493 -873,297 -1622,724 -2240,1276l-1 -1c-561,513 -979,1098 -1251,1754 -308,745 -459,1629 -451,2645l0 78c-9,1041 145,1948 459,2718l7 -3c285,689 731,1307 1334,1851l19 20c653,593 1411,1043 2269,1345 933,329 2035,495 3299,495z"/>
  </g>
  <g>
   <path class="fil1" d="M1250529 16985l0 -66712 0 -7500 7500 0 23328 0c2772,0 5399,262 7871,777 2618,546 4992,1383 7111,2502 2121,1113 3998,2447 5626,3999 1662,1583 3050,3387 4160,5411l2 -1c1073,1934 1872,3962 2398,6077 525,2109 786,4262 786,6453 0,1921 -185,3750 -554,5484 -402,1885 -1025,3610 -1867,5169 -548,1014 -1179,1976 -1890,2884 159,161 316,325 471,492l0 30c1306,1410 2430,2936 3364,4569 1052,1841 1842,3872 2361,6084 485,2069 729,4259 729,6565 0,2290 -270,4493 -807,6607 -547,2153 -1375,4197 -2482,6133l-13 -7c-1178,2078 -2673,3914 -4475,5503l-14 -16c-1717,1511 -3710,2810 -5979,3896l0 30c-2187,1041 -4697,1823 -7528,2340 -2663,487 -5496,731 -8490,731l-24108 0 -7500 0 0 -7500zm7500 0l0 -66712 23328 0c4647,0 8484,810 11496,2400 3027,1590 5274,3730 6741,6421 1483,2675 2217,5641 2217,8897 0,2874 -505,5243 -1513,7108 -1009,1865 -2339,3348 -3975,4433 -1636,1086 -3409,1881 -5320,2400l0 658c2033,122 4082,840 6145,2155 2064,1299 3792,3164 5183,5595 1391,2431 2094,5412 2094,8928 0,3347 -764,6344 -2293,9019 -1513,2675 -3913,4785 -7200,6359 -3272,1559 -7537,2339 -12795,2339l-24108 0zm8087 -7170l16021 0c5274,0 9034,-1024 11251,-3072 2232,-2049 3348,-4540 3348,-7475 0,-2263 -581,-4357 -1728,-6268 -1162,-1926 -2797,-3470 -4922,-4632 -2125,-1162 -4647,-1743 -7552,-1743l-16418 0 0 23190zm0 -30222l14981 0c3654,0 6726,-1054 9249,-3164 2522,-2094 3776,-4907 3776,-8438 0,-2920 -1025,-5412 -3058,-7476 -2048,-2048 -5274,-3072 -9707,-3072l-15241 0 0 22150zm7500 22722l8521 0c3336,0 5404,-361 6183,-1080 373,-342 625,-659 753,-944 108,-241 163,-584 163,-1023 0,-508 -47,-932 -140,-1269l0 -29c-96,-353 -262,-725 -491,-1111l-13 8c-238,-395 -510,-738 -811,-1021 -372,-351 -797,-657 -1269,-915 -444,-243 -972,-435 -1578,-575 -667,-154 -1469,-231 -2400,-231l-8918 0 0 8190zm0 -30222l7481 0c1023,0 1906,-128 2647,-381 645,-220 1245,-563 1797,-1025l30 0c363,-301 625,-631 783,-985 178,-399 268,-971 268,-1711 0,-517 -61,-923 -181,-1217l0 -29c-119,-290 -341,-605 -666,-941l-14 14c-166,-166 -471,-320 -912,-459 -875,-277 -2039,-416 -3492,-416l-7741 0 0 7150z"/>
  </g>
  <g>
   <path id="1" class="fil1" d="M1312774 16985l0 -66712 0 -7500 7500 0 23328 0c2772,0 5399,262 7871,777 2618,546 4992,1383 7111,2502 2121,1113 3998,2447 5626,3999 1662,1583 3050,3387 4160,5411l2 -1c1073,1934 1872,3962 2398,6077 525,2109 786,4262 786,6453 0,1921 -185,3750 -554,5484 -402,1885 -1025,3610 -1867,5169 -548,1014 -1179,1976 -1890,2884 159,161 316,325 471,492l0 30c1306,1410 2430,2936 3364,4569 1052,1841 1842,3872 2361,6084 485,2069 729,4259 729,6565 0,2290 -270,4493 -807,6607 -547,2153 -1375,4197 -2482,6133l-13 -7c-1178,2078 -2673,3914 -4475,5503l-14 -16c-1717,1511 -3710,2810 -5979,3896l0 30c-2187,1041 -4697,1823 -7528,2340 -2663,487 -5496,731 -8490,731l-24108 0 -7500 0 0 -7500zm7500 0l0 -66712 23328 0c4647,0 8484,810 11496,2400 3027,1590 5274,3730 6741,6421 1483,2675 2217,5641 2217,8897 0,2874 -505,5243 -1513,7108 -1009,1865 -2339,3348 -3975,4433 -1636,1086 -3409,1881 -5320,2400l0 658c2033,122 4082,840 6145,2155 2064,1299 3792,3164 5183,5595 1391,2431 2094,5412 2094,8928 0,3347 -764,6344 -2293,9019 -1513,2675 -3913,4785 -7200,6359 -3272,1559 -7537,2339 -12795,2339l-24108 0zm8087 -7170l16021 0c5274,0 9034,-1024 11251,-3072 2232,-2049 3348,-4540 3348,-7475 0,-2263 -581,-4357 -1728,-6268 -1162,-1926 -2797,-3470 -4922,-4632 -2125,-1162 -4647,-1743 -7552,-1743l-16418 0 0 23190zm0 -30222l14981 0c3654,0 6726,-1054 9249,-3164 2522,-2094 3776,-4907 3776,-8438 0,-2920 -1025,-5412 -3058,-7476 -2048,-2048 -5274,-3072 -9707,-3072l-15241 0 0 22150zm7500 22722l8521 0c3336,0 5404,-361 6183,-1080 373,-342 625,-659 753,-944 108,-241 163,-584 163,-1023 0,-508 -47,-932 -140,-1269l0 -29c-96,-353 -262,-725 -491,-1111l-13 8c-238,-395 -510,-738 -811,-1021 -372,-351 -797,-657 -1269,-915 -444,-243 -972,-435 -1578,-575 -667,-154 -1469,-231 -2400,-231l-8918 0 0 8190zm0 -30222l7481 0c1023,0 1906,-128 2647,-381 645,-220 1245,-563 1797,-1025l30 0c363,-301 625,-631 783,-985 178,-399 268,-971 268,-1711 0,-517 -61,-923 -181,-1217l0 -29c-119,-290 -341,-605 -666,-941l-14 14c-166,-166 -471,-320 -912,-459 -875,-277 -2039,-416 -3492,-416l-7741 0 0 7150z"/>
  </g>
  <g>
   <path id="2" class="fil1" d="M1403111 24485l-20592 0 -7500 0 0 -7500 0 -66712 0 -7500 7500 0 21509 0c7782,0 14568,1672 20352,5015 2908,1682 5518,3771 7822,6258 2281,2462 4192,5247 5730,8341 1499,3046 2628,6383 3378,10011 729,3527 1097,7232 1097,11109 0,8080 -1503,15162 -4505,21242 -1569,3168 -3512,5984 -5823,8445 -2311,2460 -4985,4552 -8018,6275 -3016,1707 -6305,2977 -9857,3805 -3463,806 -7163,1211 -11093,1211zm0 -7500l-20592 0 0 -66712 21509 0c6466,0 12000,1330 16602,3990 4601,2660 8132,6482 10593,11435 2446,4968 3684,10899 3684,17809 0,6940 -1238,12917 -3714,17931 -2477,4999 -6084,8836 -10823,11527 -4724,2675 -10487,4020 -17259,4020zm-12505 -7170l11985 0c8270,0 14416,-2354 18451,-7047 4021,-4708 6039,-11129 6039,-19261 0,-8087 -1972,-14446 -5932,-19093 -3944,-4648 -9829,-6971 -17641,-6971l-12902 0 0 52372zm7500 -7500l4485 0c3224,0 5939,-423 8143,-1264 1904,-727 3447,-1777 4624,-3146 1339,-1568 2363,-3476 3065,-5715 771,-2459 1158,-5356 1158,-8683 0,-3334 -376,-6215 -1129,-8640 -678,-2185 -1675,-4051 -2987,-5590l-29 -29c-1145,-1350 -2617,-2381 -4409,-3089 -2051,-810 -4559,-1216 -7519,-1216l-5402 0 0 37372z"/>
  </g>
  <g>
   <path id="3" class="fil1" d="M1471225 25402c-2651,0 -5254,-263 -7799,-780 -2573,-523 -4963,-1300 -7168,-2323 -2316,-1076 -4383,-2367 -6194,-3868 -1836,-1520 -3449,-3304 -4834,-5339l-14 10c-1392,-2038 -2439,-4246 -3139,-6612 -669,-2264 -1001,-4674 -993,-7217 -7,-1981 174,-3863 550,-5640 394,-1863 1002,-3664 1819,-5401 793,-1672 1749,-3238 2869,-4688 563,-731 1170,-1430 1820,-2096 -164,-222 -323,-448 -480,-678 -1380,-2015 -2420,-4201 -3116,-6546 -666,-2240 -995,-4622 -986,-7136 -8,-2419 290,-4699 897,-6838 635,-2238 1599,-4350 2888,-6329 1231,-1895 2708,-3602 4426,-5114l-13 -14c1653,-1453 3547,-2720 5673,-3793 2044,-1037 4260,-1820 6639,-2346 2359,-522 4746,-783 7155,-783 2393,0 4762,260 7103,780 2375,529 4587,1312 6631,2349 2125,1078 4011,2345 5656,3793 1677,1476 3144,3168 4400,5069l30 59c1265,1942 2226,4034 2878,6270 632,2175 958,4466 967,6869l0 58c-9,2491 -364,4880 -1054,7154 -713,2345 -1751,4515 -3109,6498 -161,235 -326,466 -494,693 659,679 1271,1386 1833,2120 1046,1365 1981,2901 2799,4595l11 -5c817,1687 1439,3489 1866,5402 406,1820 614,3709 625,5664l0 58c-11,2571 -358,4978 -1032,7212l0 29c-699,2315 -1757,4505 -3162,6564 -1370,2000 -2990,3781 -4854,5326 -1773,1471 -3822,2755 -6143,3842 -2247,1048 -4637,1835 -7168,2352 -2532,517 -5128,780 -7783,780zm0 -7500c-4463,0 -8407,-810 -11832,-2400 -3424,-1590 -6084,-3806 -7995,-6619 -1911,-2798 -2858,-6008 -2843,-9615 -15,-2829 535,-5443 1666,-7843 1131,-2384 2675,-4402 4647,-6023 1957,-1620 4158,-2644 6589,-3072l0 -398c-3195,-825 -5732,-2614 -7613,-5381 -1895,-2767 -2828,-5931 -2813,-9462 -15,-3394 841,-6421 2584,-9096 1727,-2660 4127,-4769 7185,-6313 3042,-1544 6527,-2309 10425,-2309 3868,0 7323,765 10365,2309 3042,1544 5427,3653 7185,6313 1742,2675 2629,5702 2644,9096 -15,3531 -978,6695 -2874,9462 -1895,2767 -4418,4556 -7536,5381l0 398c2400,428 4571,1452 6512,3072 1926,1621 3470,3639 4617,6023 1162,2400 1742,5014 1758,7843 -16,3607 -994,6817 -2905,9615 -1926,2813 -4586,5029 -7979,6619 -3409,1590 -7323,2400 -11787,2400zm0 -7169c4525,0 8102,-1086 10747,-3241 2629,-2156 3959,-5029 3990,-8622 -31,-2507 -688,-4739 -1957,-6665 -1284,-1941 -3027,-3455 -5228,-4571 -2201,-1100 -4724,-1651 -7552,-1651 -2843,0 -5365,551 -7597,1651 -2232,1116 -3975,2630 -5244,4571 -1268,1926 -1895,4158 -1880,6665 -15,3593 1284,6466 3914,8622 2629,2155 6237,3241 10807,3241zm0 -31659c3593,0 6543,-1055 8867,-3149 2323,-2095 3500,-4862 3516,-8316 -16,-3394 -1162,-6100 -3440,-8148 -2262,-2034 -5243,-3058 -8943,-3058 -3730,0 -6726,1024 -9004,3058 -2262,2048 -3393,4754 -3363,8148 -30,3454 1116,6221 3440,8316 2308,2094 5289,3149 8927,3149zm0 24159c1533,0 2838,-162 3913,-482l-2 -8c877,-265 1585,-617 2119,-1052l3 4c405,-338 701,-709 886,-1110 216,-467 333,-1034 346,-1694 -11,-513 -86,-1004 -220,-1460l0 -29c-113,-386 -278,-746 -492,-1075l-13 9c-282,-427 -601,-794 -952,-1101 -381,-332 -852,-641 -1405,-921l6 -12c-480,-236 -1068,-431 -1759,-582 -722,-157 -1534,-237 -2430,-237 -905,0 -1720,80 -2446,237 -688,149 -1303,359 -1840,623l-6 -12c-521,264 -978,565 -1366,904 -327,285 -633,643 -913,1072l-30 0c-189,287 -341,633 -453,1031 -133,474 -199,977 -196,1503l0 29c-2,704 104,1297 320,1774 175,386 466,747 869,1077 513,420 1206,763 2073,1023 1085,325 2416,489 3988,489zm0 -31659c958,0 1765,-118 2419,-350 527,-187 1008,-477 1438,-865 357,-322 608,-650 748,-982 197,-468 301,-1059 307,-1768 -6,-681 -102,-1243 -286,-1679 -127,-301 -360,-603 -693,-903 -376,-338 -819,-596 -1324,-768 -692,-236 -1563,-356 -2609,-356 -1066,0 -1948,120 -2644,356 -560,190 -1022,448 -1380,768l-1 -1c-276,258 -480,541 -606,846 -182,439 -271,1000 -265,1678l0 118c-6,698 85,1281 270,1742l10 -4c142,343 376,662 699,953l29 29c404,366 878,646 1419,837 658,232 1483,349 2469,349z"/>
  </g>
  <polygon class="fil2 str0" points="-790373,406464 -790384,393336 -777873,386121 -777873,399214 -754318,412814 -752873,411369 -752874,386113 -777873,371680 -802873,386114 -802873,411377 -801412,412838 "/>
 </g>
 <g id="Layer_x0020_2">
  <metadata id="CorelCorpID_1Corel-Layer"/>
  <g>
   <polygon class="fil3" points="74722,265875 81190,241662 107830,228355 101360,252503 138083,277587 141462,274921 153942,228340 114967,201720 61724,228342 49239,274936 51212,277631 "/>
   <polygon class="fil3" points="57803,329017 64271,304804 90911,291497 84441,315645 121164,340729 124543,338064 137023,291482 98048,264862 44805,291484 32320,338079 34293,340773 "/>
   <g>
    <polygon class="fil3" points="177367,266676 183835,242463 210475,229156 204005,253304 240728,278388 244107,275723 256587,229141 217612,202521 164369,229143 151884,275737 153857,278432 "/>
    <polygon class="fil3" points="160448,329818 166916,305605 193557,292298 187086,316447 223809,341530 227189,338865 239668,292284 200693,265664 147450,292285 134965,338880 136938,341574 "/>
    <polygon class="fil3" points="194286,203534 200754,179321 227394,166014 220924,190162 257647,215246 261026,212581 273506,165999 234531,139379 181288,166001 168803,212595 170776,215290 "/>
   </g>
   <polygon class="fil3" points="279046,271086 285513,246873 312154,233565 305683,257714 342407,282797 345786,280132 358265,233551 319290,206931 266048,233553 253563,280147 255535,282842 "/>
   <polygon class="fil3" points="295964,207943 302432,183730 329073,170423 322602,194572 359325,219655 362705,216990 375184,170409 336209,143789 282967,170410 270482,217005 272454,219699 "/>
  </g>
  <polygon class="fil3" points="644562,794446 644542,771691 666228,759185 666228,781879 707056,805452 709561,802948 709559,759171 666228,734154 622895,759173 622895,802961 625427,805494 "/>
  <polygon class="fil3" points="644562,853786 644542,831031 666228,818525 666228,841219 707056,864792 709561,862288 709559,818511 666228,793494 622895,818513 622895,862302 625427,864834 "/>
  <g>
   <polygon class="fil3" points="741228,795199 741208,772444 762894,759938 762894,782632 803722,806205 806227,803701 806225,759924 762894,734907 719561,759926 719561,803714 722093,806247 "/>
   <polygon class="fil3" points="741228,854539 741208,831784 762894,819278 762894,841972 803722,865545 806227,863041 806225,819264 762894,794247 719561,819266 719561,863055 722093,865587 "/>
   <polygon class="fil3" points="741228,735859 741208,713104 762894,700598 762894,723292 803722,746865 806227,744361 806225,700584 762894,675567 719561,700586 719561,744374 722093,746907 "/>
  </g>
  <polygon class="fil3" points="837894,799343 837874,776588 859560,764082 859560,786776 900388,810349 902893,807845 902891,764068 859560,739051 816227,764070 816227,807858 818759,810391 "/>
  <polygon class="fil3" points="837894,740003 837874,717248 859560,704742 859560,727436 900388,751009 902893,748505 902891,704728 859560,679711 816227,704730 816227,748518 818759,751051 "/>
 </g>
</svg>
